 
<svg version="1.1" id="Layer_1" xmlns="http://www.w3.org/2000/svg" xmlns:xlink="http://www.w3.org/1999/xlink" x="0px" y="0px"
	 viewBox="0 0 512 512" style="enable-background:new 0 0 512 512;" xml:space="preserve">
<g>
	<path d="M399.5,463.1c-13.3,13.2-30.5,16.3-45.4,7.8c-45.6-25.8-91-52-136.1-78.7c-14.8-8.7-19.7-21.5-15.9-34.4
		c3.1-10.5,7.1-12.6,16.8-7.9c17.7,8.6,35,18.2,52.9,26.2c9.6,4.3,20.1,8,30.4,8.9c26.3,2.4,44.4-11.8,57.6-32.8
		c9.6-15.2,18.4-31,27.2-46.7c8.4-14.9,19.2-26.6,37.8-24.3c19.3,2.4,35.5,11.3,45.4,28.9c1.7,3.1,2.7,6.9,3.1,10.5
		c1.6,12.6-1.1,14.8-13.4,11.8c-33.7-8.3-67.2,6.4-83.4,36.4c-16.1,30-10.3,64.7,15.1,88.7C393.9,459.5,396.6,461,399.5,463.1z"/>
	<path d="M68.8,351c-5.1,0.9-12.1,1.9-18.9,3.2c-8.6,1.6-11.9-0.7-11.6-9.6c0.4-14.4,8.4-24.2,20.4-31.2c32.9-19.1,65.9-38,98.8-57
		c11.6-6.6,23-13.6,34.8-19.7c14.8-7.6,30-5.2,38.6,4.8c5.4,6.3,5.5,11.7-1.9,16.6c-16.7,11-33.5,21.9-50.1,33.1
		c-34.3,23.1-42.1,53.6-22.5,90c8.7,16.2,18.3,31.8,27.2,47.8c13.7,24.7,8.7,42.8-15.4,57.4c-9.9,6-19.8,11.3-31.8,9.7
		c-3.9-0.5-8-1.2-11.5-2.8c-10.2-4.8-10.6-8.5-2.7-16.7c21.8-22.2,28.2-52.6,16-80.2C125.2,367.4,102.1,352.9,68.8,351z"/>
	<path d="M171,84.2c10.2,42.8,34.2,68.3,75.7,67.9c41.6-0.4,65.1-26.3,73.2-66.2c15,3.4,27.2,16.6,27.3,31.9
		c0.5,54.4,0.4,108.8,0,163.1c-0.1,15.3-9.3,25.5-22.3,28.4c-9.7,2.1-13.6-0.9-14.3-10.9c-1.3-21.3-2.4-42.6-4-63.9
		c-2.5-33.3-24-56-57.3-58.7c-21.2-1.7-42.6-1.2-64-1.6c-28.8-0.5-41.1-12.9-41.5-41.9c-0.1-11.7-1-23.9,7.6-33.3
		C156.6,93.6,163.5,89.8,171,84.2z"/>
	<path d="M7.8,425c0-35.6,27.3-63.4,62.2-63.5c35.6-0.1,63.4,27.8,63.3,63.6c-0.1,35.2-28,63.2-62.9,63.2
		C35.4,488.1,7.8,460.3,7.8,425z"/>
	<path d="M245.3,141.8c-34.4,0.1-62.5-27.8-62.8-62.2c-0.3-35.2,28.5-64.4,63.3-64.1c34.5,0.3,63.2,28.3,63.4,62
		C309.5,113.4,281.5,141.7,245.3,141.8z"/>
	<path d="M440,466.4c-35.8-0.4-62-28.5-61.4-66c0.5-33.5,28.9-60.2,63.7-59.8c35.6,0.4,62.1,27.6,61.9,63.5
		C504,439.9,476.3,466.8,440,466.4z"/>
</g>
</svg>
